<svg width="300" height="480" viewBox="0 0 300 480" fill="none" xmlns="http://www.w3.org/2000/svg">
<rect x="0.75" y="0.75" width="298.5" height="58.5" rx="9.25" fill="white"/>
<rect width="40" height="40" transform="translate(10 10)" fill="white"/>
<path d="M41.1914 24.6326L32.7408 17.5524C32.1698 17.0956 31.3704 16.753 30.6852 16.753H27.8303V12.9845H19.4938V16.8672C18.4661 16.8672 17.6667 17.6666 17.6667 18.6944V43.8178C17.6667 45.645 19.1513 47.0154 20.8642 47.0154H39.1358C40.963 47.0154 42.3334 45.5308 42.3334 43.8178V27.145C42.3334 26.2314 41.9908 25.3178 41.1914 24.6326ZM38.7932 28.4012C38.3364 28.9722 37.5371 28.9722 36.9661 28.5154L30.1142 22.6913C29.5432 22.2345 29.5432 21.4351 30 20.8641C30.4568 20.2931 31.2562 20.2931 31.8272 20.7499L38.679 26.574C39.25 27.0308 39.25 27.8302 38.7932 28.4012Z" fill="#90D33A"/>
<path d="M61.246 24.2V34H62.842V25.712H66.972V34H68.596V24.2H61.246ZM72.5457 26.44L72.0137 31.242C71.9017 32.194 71.4817 32.614 70.7677 32.614H70.4037V34.042H70.6557C72.4197 34.042 73.2877 33.286 73.4977 31.144L73.8337 27.798H76.1578V34.014H77.6977V26.454L72.5457 26.44ZM86.5194 26.44L86.3374 27.392C85.6514 26.678 84.6854 26.258 83.5654 26.258C81.3114 26.258 79.6314 27.952 79.6314 30.22C79.6314 32.488 81.3114 34.196 83.5654 34.196C84.6714 34.196 85.6234 33.776 86.3094 33.09L86.4634 34H87.7094V26.44H86.5194ZM83.6914 32.698C82.2634 32.698 81.2134 31.634 81.2134 30.22C81.2134 28.806 82.2634 27.742 83.6914 27.742C85.1194 27.742 86.1554 28.792 86.1554 30.22C86.1554 31.648 85.1194 32.698 83.6914 32.698ZM93.6214 34.196C95.4834 34.196 96.9814 33.02 97.3874 31.256H95.8194C95.4134 32.18 94.6154 32.712 93.6214 32.712C92.2774 32.712 91.2414 31.62 91.2414 30.22C91.2414 28.82 92.2634 27.742 93.6214 27.742C94.6014 27.742 95.4414 28.274 95.8334 29.142H97.3734C96.9534 27.406 95.4974 26.258 93.6214 26.258C91.3674 26.258 89.6594 27.966 89.6594 30.22C89.6594 32.474 91.3674 34.196 93.6214 34.196ZM105.118 26.44H98.2721V27.84H100.932V34H102.458V27.84H105.118V26.44ZM112.292 26.44L108.246 31.2V26.44H106.762V34H107.644L111.676 29.212V34H113.16V26.44H112.292ZM120.429 34H122.333L119.491 30.066L122.053 26.44H120.219L118.175 29.366H117.223V26.44H115.669V34H117.223V30.78H118.161L120.429 34Z" fill="#071E23"/>
<rect x="0.75" y="0.75" width="298.5" height="58.5" rx="9.25" stroke="#F3F1F8" stroke-width="1.5"/>
<rect x="0.75" y="70.75" width="298.5" height="58.5" rx="9.25" fill="white"/>
<rect width="40" height="40" transform="translate(10 80)" fill="white"/>
<path d="M32.3394 83.3427H17.9662V116.657H42.033V93.1477H32.3394V83.3427Z" fill="#E2AE61"/>
<path d="M64.942 97.854H62.842V95.698H67.364V94.2H61.246V104H64.914C66.762 104 68.092 102.712 68.092 100.92C68.092 99.128 66.79 97.854 64.942 97.854ZM64.788 102.474H62.842V99.38H64.802C65.768 99.38 66.454 100.01 66.454 100.92C66.454 101.816 65.754 102.474 64.788 102.474ZM75.1158 96.44L72.8618 101.718L70.4538 96.44H68.7738L72.0638 103.454L71.8958 103.818C71.3358 105.022 71.0278 105.316 70.0338 105.316H69.3758V106.716H70.1458C71.6858 106.716 72.4418 106.044 73.2958 104.14L76.7678 96.44H75.1158ZM87.4708 104L86.1128 96.44H84.7968L82.3608 101.284L79.9528 96.44H78.6368L77.2648 104H78.7628L79.6728 98.862L82.2068 103.916H82.5288L85.0628 98.862L85.9728 104H87.4708ZM95.6314 96.44L95.4494 97.392C94.7634 96.678 93.7974 96.258 92.6774 96.258C90.4234 96.258 88.7434 97.952 88.7434 100.22C88.7434 102.488 90.4234 104.196 92.6774 104.196C93.7834 104.196 94.7354 103.776 95.4214 103.09L95.5754 104H96.8214V96.44H95.6314ZM92.8034 102.698C91.3754 102.698 90.3254 101.634 90.3254 100.22C90.3254 98.806 91.3754 97.742 92.8034 97.742C94.2314 97.742 95.2674 98.792 95.2674 100.22C95.2674 101.648 94.2314 102.698 92.8034 102.698ZM104.161 96.44H99.3315V104H100.843V97.826H104.161V96.44ZM111.887 96.44L111.705 97.392C111.019 96.678 110.053 96.258 108.933 96.258C106.679 96.258 104.999 97.952 104.999 100.22C104.999 102.488 106.679 104.196 108.933 104.196C110.039 104.196 110.991 103.776 111.677 103.09L111.831 104H113.077V96.44H111.887ZM109.059 102.698C107.631 102.698 106.581 101.634 106.581 100.22C106.581 98.806 107.631 97.742 109.059 97.742C110.487 97.742 111.523 98.792 111.523 100.22C111.523 101.648 110.487 102.698 109.059 102.698Z" fill="#071E23"/>
<rect x="0.75" y="70.75" width="298.5" height="58.5" rx="9.25" stroke="#F3F1F8" stroke-width="1.5"/>
<rect x="0.75" y="140.75" width="298.5" height="58.5" rx="9.25" fill="white"/>
<rect width="40" height="40" transform="translate(10 150)" fill="white"/>
<path d="M33.3957 160.251V150H26.7105V160.251C23.3679 161.476 20.9166 164.819 20.9166 168.719V190H39.0782V168.719C39.1896 164.708 36.8498 161.365 33.3957 160.251Z" fill="#E4603B"/>
<path d="M65.656 174.182C68.008 174.182 69.87 172.698 70.388 170.388H68.75C68.302 171.774 67.154 172.628 65.656 172.628C63.696 172.628 62.254 171.158 62.254 169.114C62.254 167.07 63.696 165.586 65.656 165.586C67.098 165.586 68.246 166.384 68.722 167.686H70.346C69.828 165.474 67.966 164.032 65.656 164.032C62.758 164.032 60.616 166.174 60.616 169.114C60.616 172.04 62.758 174.182 65.656 174.182ZM78.2058 166.44H71.3598V167.84H74.0198V174H75.5458V167.84H78.2058V166.44ZM86.8128 170.248C86.8128 168.05 85.2728 166.258 82.9488 166.258C80.7368 166.258 79.0708 167.966 79.0708 170.22C79.0708 172.488 80.7368 174.196 82.9488 174.196C84.6428 174.196 86.0288 173.216 86.6308 171.62H84.9928C84.5868 172.32 83.8588 172.74 82.9488 172.74C81.7168 172.74 80.8348 171.984 80.6388 170.752H86.7708C86.7988 170.584 86.8128 170.416 86.8128 170.248ZM82.9488 167.672C84.1108 167.672 84.9648 168.344 85.2448 169.492H80.6808C80.9328 168.372 81.7868 167.672 82.9488 167.672ZM93.5029 174H95.4069L92.5649 170.066L95.1269 166.44H93.2929L91.2489 169.366H90.2969V166.44H88.7429V174H90.2969V170.78H91.2349L93.5029 174ZM98.0908 166.44L97.5588 171.242C97.4468 172.194 97.0268 172.614 96.3128 172.614H95.9488V174.042H96.2008C97.9648 174.042 98.8328 173.286 99.0428 171.144L99.3788 167.798H101.703V174.014H103.243V166.454L98.0908 166.44ZM109.222 174.196C111.532 174.196 113.254 172.502 113.254 170.22C113.254 167.952 111.532 166.258 109.222 166.258C106.898 166.258 105.176 167.938 105.176 170.22C105.176 172.502 106.898 174.196 109.222 174.196ZM109.222 172.712C107.78 172.712 106.758 171.676 106.758 170.22C106.758 168.778 107.78 167.742 109.222 167.742C110.65 167.742 111.672 168.778 111.672 170.22C111.672 171.676 110.65 172.712 109.222 172.712Z" fill="#071E23"/>
<rect x="0.75" y="140.75" width="298.5" height="58.5" rx="9.25" stroke="#F3F1F8" stroke-width="1.5"/>
<g clip-path="url(#clip0_2_2439)">
<rect y="210" width="300" height="60" rx="10" fill="white"/>
<rect width="40" height="40" transform="translate(10 220)" fill="white"/>
<path d="M39.0808 236.546V231.755L32.8413 226.295H34.5126V220.056H25.4875V226.295H27.1588L20.9193 231.755V236.546C20.9193 238.44 22.3677 239.889 24.2619 239.889C22.3677 239.889 20.9193 241.337 20.9193 243.231C20.9193 245.125 22.3677 246.574 24.2619 246.574C22.3677 246.574 20.9193 248.022 20.9193 249.917C20.9193 251.811 22.3677 253.259 24.2619 253.259C22.3677 253.259 20.9193 254.708 20.9193 256.602C20.9193 258.496 22.3677 259.944 24.2619 259.944H35.7382C37.6323 259.944 39.0808 258.496 39.0808 256.602C39.0808 254.708 37.6323 253.259 35.7382 253.259C37.6323 253.259 39.0808 251.811 39.0808 249.917C39.0808 248.022 37.6323 246.574 35.7382 246.574C37.6323 246.574 39.0808 245.125 39.0808 243.231C39.0808 241.337 37.6323 239.889 35.7382 239.889C37.6323 240 39.0808 238.44 39.0808 236.546Z" fill="#44DDFF"/>
<path d="M64.942 237.854H62.842V235.698H67.364V234.2H61.246V244H64.914C66.762 244 68.092 242.712 68.092 240.92C68.092 239.128 66.79 237.854 64.942 237.854ZM64.788 242.474H62.842V239.38H64.802C65.768 239.38 66.454 240.01 66.454 240.92C66.454 241.816 65.754 242.474 64.788 242.474ZM75.1158 236.44L72.8618 241.718L70.4538 236.44H68.7738L72.0638 243.454L71.8958 243.818C71.3358 245.022 71.0278 245.316 70.0338 245.316H69.3758V246.716H70.1458C71.6858 246.716 72.4418 246.044 73.2958 244.14L76.7678 236.44H75.1158ZM84.2827 236.44H77.4367V237.84H80.0967V244H81.6227V237.84H84.2827V236.44ZM89.0485 238.694H87.4385V236.44H85.9265V244H89.0485C90.7145 244 91.8485 242.922 91.8485 241.354C91.8485 239.772 90.7145 238.694 89.0485 238.694ZM93.1645 236.44V244H94.7185V236.44H93.1645ZM88.8665 242.67H87.4385V240.038H88.8665C89.7205 240.038 90.2805 240.57 90.2805 241.354C90.2805 242.138 89.7205 242.67 88.8665 242.67ZM98.5283 236.44L97.9963 241.242C97.8843 242.194 97.4643 242.614 96.7503 242.614H96.3863V244.042H96.6383C98.4023 244.042 99.2703 243.286 99.4803 241.144L99.8163 237.798H102.14V244.014H103.68V236.454L98.5283 236.44ZM110.934 244H112.838L109.996 240.066L112.558 236.44H110.724L108.68 239.366H107.728V236.44H106.174V244H107.728V240.78H108.666L110.934 244ZM120.288 236.44L120.106 237.392C119.42 236.678 118.454 236.258 117.334 236.258C115.08 236.258 113.4 237.952 113.4 240.22C113.4 242.488 115.08 244.196 117.334 244.196C118.44 244.196 119.392 243.776 120.078 243.09L120.232 244H121.478V236.44H120.288ZM117.46 242.698C116.032 242.698 114.982 241.634 114.982 240.22C114.982 238.806 116.032 237.742 117.46 237.742C118.888 237.742 119.924 238.792 119.924 240.22C119.924 241.648 118.888 242.698 117.46 242.698ZM131.547 234.2H127.935V244H129.531V240.682H131.547C133.465 240.682 134.893 239.296 134.893 237.448C134.893 235.586 133.451 234.2 131.547 234.2ZM131.477 239.156H129.531V235.726H131.477C132.527 235.726 133.255 236.454 133.255 237.448C133.255 238.428 132.527 239.156 131.477 239.156ZM138.424 242.488V239.744H142.148V238.274H138.424V235.712H142.512V234.2H136.828V244H142.666V242.488H138.424ZM151.286 234.2H143.936V235.712H146.806V244H148.416V235.712H151.286V234.2Z" fill="#071E23"/>
</g>
<rect x="0.75" y="210.75" width="298.5" height="58.5" rx="9.25" stroke="#F3F1F8" stroke-width="1.5"/>
<rect x="0.75" y="280.75" width="298.5" height="58.5" rx="9.25" fill="white"/>
<rect width="40" height="40" transform="translate(10 290)" fill="white"/>
<path d="M36.629 296.908H33.1749L35.9605 290.891L33.9549 290L30.7237 296.908H23.3699L20.8073 301.142V326.88L22.7014 330H37.2975L39.1917 326.88V301.142L36.629 296.908Z" fill="#7A77FF"/>
<path d="M64.942 307.854H62.842V305.698H67.364V304.2H61.246V314H64.914C66.762 314 68.092 312.712 68.092 310.92C68.092 309.128 66.79 307.854 64.942 307.854ZM64.788 312.474H62.842V309.38H64.802C65.768 309.38 66.454 310.01 66.454 310.92C66.454 311.816 65.754 312.474 64.788 312.474ZM76.3273 306.44L76.1453 307.392C75.4593 306.678 74.4933 306.258 73.3733 306.258C71.1193 306.258 69.4393 307.952 69.4393 310.22C69.4393 312.488 71.1193 314.196 73.3733 314.196C74.4793 314.196 75.4313 313.776 76.1173 313.09L76.2713 314H77.5173V306.44H76.3273ZM73.4993 312.698C72.0713 312.698 71.0213 311.634 71.0213 310.22C71.0213 308.806 72.0713 307.742 73.4993 307.742C74.9273 307.742 75.9633 308.792 75.9633 310.22C75.9633 311.648 74.9273 312.698 73.4993 312.698ZM85.0533 306.44V309.408H81.5533V306.44H80.0273V314H81.5533V310.85H85.0533V314H86.5933V306.44H85.0533ZM93.8447 314H95.7487L92.9067 310.066L95.4687 306.44H93.6347L91.5907 309.366H90.6387V306.44H89.0847V314H90.6387V310.78H91.5767L93.8447 314ZM103.199 306.44L103.017 307.392C102.331 306.678 101.365 306.258 100.245 306.258C97.9905 306.258 96.3105 307.952 96.3105 310.22C96.3105 312.488 97.9905 314.196 100.245 314.196C101.351 314.196 102.303 313.776 102.989 313.09L103.143 314H104.389V306.44H103.199ZM100.371 312.698C98.9425 312.698 97.8925 311.634 97.8925 310.22C97.8925 308.806 98.9425 307.742 100.371 307.742C101.799 307.742 102.835 308.792 102.835 310.22C102.835 311.648 101.799 312.698 100.371 312.698ZM117.034 306.44L116.852 307.392C116.166 306.678 115.2 306.258 114.08 306.258C111.826 306.258 110.146 307.952 110.146 310.22C110.146 312.488 111.826 314.196 114.08 314.196C115.186 314.196 116.138 313.776 116.824 313.09L116.978 314H118.224V306.44H117.034ZM114.206 312.698C112.778 312.698 111.728 311.634 111.728 310.22C111.728 308.806 112.778 307.742 114.206 307.742C115.634 307.742 116.67 308.792 116.67 310.22C116.67 311.648 115.634 312.698 114.206 312.698ZM122.05 306.44L121.518 311.242C121.406 312.194 120.986 312.614 120.272 312.614H119.908V314.042H120.16C121.924 314.042 122.792 313.286 123.002 311.144L123.338 307.798H125.662V314.014H127.202V306.454L122.05 306.44ZM136.206 306.258C134.204 306.258 132.678 307.588 132.37 309.506H131.236V306.44H129.696V314.014H131.236V310.948H132.37C132.664 312.866 134.176 314.196 136.206 314.196C138.474 314.196 140.126 312.53 140.126 310.234C140.126 307.952 138.46 306.258 136.206 306.258ZM136.206 312.712C134.848 312.712 133.84 311.648 133.84 310.234C133.84 308.806 134.848 307.742 136.206 307.742C137.536 307.742 138.558 308.806 138.558 310.234C138.558 311.648 137.55 312.712 136.206 312.712ZM151.611 314L150.253 306.44H148.937L146.501 311.284L144.093 306.44H142.777L141.405 314H142.903L143.813 308.862L146.347 313.916H146.669L149.203 308.862L150.113 314H151.611ZM159.028 306.44L154.982 311.2V306.44H153.498V314H154.38L158.412 309.212V314H159.896V306.44H159.028ZM167.431 306.44V309.408H163.931V306.44H162.405V314H163.931V310.85H167.431V314H168.971V306.44H167.431ZM176.992 306.44L172.946 311.2V306.44H171.462V314H172.344L176.376 309.212V314H177.86V306.44H176.992ZM187.551 310.248C187.551 308.05 186.011 306.258 183.687 306.258C181.475 306.258 179.809 307.966 179.809 310.22C179.809 312.488 181.475 314.196 183.687 314.196C185.381 314.196 186.767 313.216 187.369 311.62H185.731C185.325 312.32 184.597 312.74 183.687 312.74C182.455 312.74 181.573 311.984 181.377 310.752H187.509C187.537 310.584 187.551 310.416 187.551 310.248ZM183.687 307.672C184.849 307.672 185.703 308.344 185.983 309.492H181.419C181.671 308.372 182.525 307.672 183.687 307.672ZM194.591 310.052C195.165 309.73 195.529 309.1 195.529 308.372C195.529 307.238 194.647 306.44 193.373 306.44H189.481V314H193.415C194.773 314 195.781 313.076 195.781 311.844C195.781 311.018 195.305 310.346 194.591 310.052ZM194.003 308.638C194.003 309.142 193.625 309.506 193.051 309.506H190.993V307.77H193.051C193.625 307.77 194.003 308.12 194.003 308.638ZM193.135 312.642H190.993V310.766H193.121C193.751 310.766 194.185 311.144 194.185 311.704C194.185 312.264 193.751 312.642 193.135 312.642ZM204.142 306.44L203.96 307.392C203.274 306.678 202.308 306.258 201.188 306.258C198.934 306.258 197.254 307.952 197.254 310.22C197.254 312.488 198.934 314.196 201.188 314.196C202.294 314.196 203.246 313.776 203.932 313.09L204.086 314H205.332V306.44H204.142ZM201.314 312.698C199.886 312.698 198.836 311.634 198.836 310.22C198.836 308.806 199.886 307.742 201.314 307.742C202.742 307.742 203.778 308.792 203.778 310.22C203.778 311.648 202.742 312.698 201.314 312.698ZM209.956 306.44C208.528 306.44 207.464 307.476 207.464 308.848C207.464 309.828 208.024 310.612 208.934 310.99L207.128 314H208.822L210.46 311.242H212.056V314H213.554V306.44H209.956ZM210.166 309.87C209.466 309.87 209.018 309.45 209.018 308.848C209.018 308.246 209.466 307.826 210.166 307.826H212.056V309.87H210.166ZM221.413 315.96H223.135C222.001 314.518 220.951 312.138 220.951 309.478C220.951 306.79 222.029 304.41 223.135 302.954H221.413C220.167 304.746 219.411 306.986 219.411 309.478C219.411 311.942 220.167 314.196 221.413 315.96ZM231.483 314H233.233L229.173 304.2H227.661L223.727 314H225.435L226.261 311.872H230.643L231.483 314ZM228.445 306.3L230.083 310.43H226.821L228.445 306.3ZM236.551 312.502V304.2H234.955V314H240.625V312.502H236.551ZM243.042 315.96C244.288 314.196 245.044 311.942 245.044 309.478C245.044 306.986 244.288 304.746 243.042 302.954H241.32C242.426 304.41 243.504 306.79 243.504 309.478C243.504 312.138 242.454 314.518 241.334 315.96H243.042Z" fill="#071E23"/>
<rect x="0.75" y="280.75" width="298.5" height="58.5" rx="9.25" stroke="#F3F1F8" stroke-width="1.5"/>
<rect x="0.75" y="350.75" width="298.5" height="58.5" rx="9.25" fill="white"/>
<rect width="40" height="40" transform="translate(10 360)" fill="white"/>
<path d="M38.3292 365.809H21.6708L13.3333 380L21.6708 394.19H38.3292L46.6666 380L38.3292 365.809ZM29.9917 386.493C26.3523 386.493 23.3912 383.58 23.3912 380C23.3912 376.42 26.3523 373.507 29.9917 373.507C33.6311 373.507 36.5922 376.42 36.5922 380C36.5922 383.596 33.6311 386.493 29.9917 386.493Z" fill="#5C5A59"/>
<path d="M72.922 384L71.34 374.2H69.73L66.734 380.864L63.752 374.2H62.17L60.56 384H62.198L63.346 376.902L66.538 383.86H66.944L70.136 376.902L71.27 384H72.922ZM81.9801 380.248C81.9801 378.05 80.4401 376.258 78.1161 376.258C75.9041 376.258 74.2381 377.966 74.2381 380.22C74.2381 382.488 75.9041 384.196 78.1161 384.196C79.8101 384.196 81.1961 383.216 81.7981 381.62H80.1601C79.7541 382.32 79.0261 382.74 78.1161 382.74C76.8841 382.74 76.0021 381.984 75.8061 380.752H81.9381C81.9661 380.584 81.9801 380.416 81.9801 380.248ZM78.1161 377.672C79.2781 377.672 80.1321 378.344 80.4121 379.492H75.8481C76.1001 378.372 76.9541 377.672 78.1161 377.672ZM89.6831 376.44H82.8371V377.84H85.4971V384H87.0231V377.84H89.6831V376.44ZM97.4361 376.44L97.2541 377.392C96.5681 376.678 95.6021 376.258 94.4821 376.258C92.2281 376.258 90.5481 377.952 90.5481 380.22C90.5481 382.488 92.2281 384.196 94.4821 384.196C95.5881 384.196 96.5401 383.776 97.2261 383.09L97.3801 384H98.6261V376.44H97.4361ZM94.6081 382.698C93.1801 382.698 92.1301 381.634 92.1301 380.22C92.1301 378.806 93.1801 377.742 94.6081 377.742C96.0361 377.742 97.0721 378.792 97.0721 380.22C97.0721 381.648 96.0361 382.698 94.6081 382.698ZM102.452 376.44L101.92 381.242C101.808 382.194 101.388 382.614 100.674 382.614H100.31V384.042H100.562C102.326 384.042 103.194 383.286 103.404 381.144L103.74 377.798H106.064V384.014H107.604V376.454L102.452 376.44ZM111.414 376.44L110.882 381.242C110.77 382.194 110.35 382.614 109.636 382.614H109.272V384.042H109.524C111.288 384.042 112.156 383.286 112.366 381.144L112.702 377.798H115.026V384.014H116.566V376.454L111.414 376.44ZM122.545 384.196C124.855 384.196 126.577 382.502 126.577 380.22C126.577 377.952 124.855 376.258 122.545 376.258C120.221 376.258 118.499 377.938 118.499 380.22C118.499 382.502 120.221 384.196 122.545 384.196ZM122.545 382.712C121.103 382.712 120.081 381.676 120.081 380.22C120.081 378.778 121.103 377.742 122.545 377.742C123.973 377.742 124.995 378.778 124.995 380.22C124.995 381.676 123.973 382.712 122.545 382.712ZM129.665 376.44L129.133 381.242C129.021 382.194 128.601 382.614 127.887 382.614H127.523V384.042H127.775C129.539 384.042 130.407 383.286 130.617 381.144L130.953 377.798H133.277V384.014H134.817V376.454L129.665 376.44ZM140.797 384.196C143.107 384.196 144.829 382.502 144.829 380.22C144.829 377.952 143.107 376.258 140.797 376.258C138.473 376.258 136.751 377.938 136.751 380.22C136.751 382.502 138.473 384.196 140.797 384.196ZM140.797 382.712C139.355 382.712 138.333 381.676 138.333 380.22C138.333 378.778 139.355 377.742 140.797 377.742C142.225 377.742 143.247 378.778 143.247 380.22C143.247 381.676 142.225 382.712 140.797 382.712ZM156.314 384L154.956 376.44H153.64L151.204 381.284L148.796 376.44H147.48L146.108 384H147.606L148.516 378.862L151.05 383.916H151.372L153.906 378.862L154.816 384H156.314ZM166.124 376.44V379.786C165.704 380.01 165.13 380.15 164.612 380.15C163.534 380.15 162.946 379.562 162.946 378.47V376.44H161.434V378.526C161.434 380.458 162.666 381.592 164.5 381.592C165.074 381.592 165.634 381.48 166.124 381.298V384H167.622V376.44H166.124ZM177.304 380.248C177.304 378.05 175.764 376.258 173.44 376.258C171.228 376.258 169.562 377.966 169.562 380.22C169.562 382.488 171.228 384.196 173.44 384.196C175.134 384.196 176.52 383.216 177.122 381.62H175.484C175.078 382.32 174.35 382.74 173.44 382.74C172.208 382.74 171.326 381.984 171.13 380.752H177.262C177.29 380.584 177.304 380.416 177.304 380.248ZM173.44 377.672C174.602 377.672 175.456 378.344 175.736 379.492H171.172C171.424 378.372 172.278 377.672 173.44 377.672ZM183.294 376.258C182.202 376.258 181.25 376.678 180.564 377.378L180.27 376.44H179.234V386.716H180.788V383.286C181.446 383.86 182.314 384.196 183.294 384.196C185.548 384.196 187.214 382.488 187.214 380.22C187.214 377.952 185.548 376.258 183.294 376.258ZM183.168 382.712C181.74 382.712 180.69 381.648 180.69 380.22C180.69 378.806 181.74 377.742 183.168 377.742C184.596 377.742 185.632 378.806 185.632 380.22C185.632 381.648 184.596 382.712 183.168 382.712ZM194.193 376.44V379.408H190.693V376.44H189.167V384H190.693V380.85H194.193V384H195.733V376.44H194.193ZM201.346 378.694H199.736V376.44H198.224V384H201.346C203.012 384 204.146 382.922 204.146 381.354C204.146 379.772 203.012 378.694 201.346 378.694ZM205.462 376.44V384H207.016V376.44H205.462ZM201.164 382.67H199.736V380.038H201.164C202.018 380.038 202.578 380.57 202.578 381.354C202.578 382.138 202.018 382.67 201.164 382.67ZM214.634 373.962H210.882V375.11H214.634V373.962ZM215.04 376.44L210.994 381.2V376.44H209.51V384H210.392L214.424 379.212V384H215.908V376.44H215.04Z" fill="#071E23"/>
<rect x="0.75" y="350.75" width="298.5" height="58.5" rx="9.25" stroke="#F3F1F8" stroke-width="1.5"/>
<rect x="0.75" y="420.75" width="298.5" height="58.5" rx="9.25" fill="white"/>
<rect width="40" height="40" transform="translate(10 430)" fill="white"/>
<path d="M38.3292 435.809H21.6708L13.3333 450L21.6708 464.19H38.3292L46.6666 450L38.3292 435.809ZM29.9917 456.493C26.3523 456.493 23.3912 453.58 23.3912 450C23.3912 446.42 26.3523 443.507 29.9917 443.507C33.6311 443.507 36.5922 446.42 36.5922 450C36.5922 453.596 33.6311 456.493 29.9917 456.493Z" fill="#F8931D"/>
<path d="M72.922 454L71.34 444.2H69.73L66.734 450.864L63.752 444.2H62.17L60.56 454H62.198L63.346 446.902L66.538 453.86H66.944L70.136 446.902L71.27 454H72.922ZM81.9801 450.248C81.9801 448.05 80.4401 446.258 78.1161 446.258C75.9041 446.258 74.2381 447.966 74.2381 450.22C74.2381 452.488 75.9041 454.196 78.1161 454.196C79.8101 454.196 81.1961 453.216 81.7981 451.62H80.1601C79.7541 452.32 79.0261 452.74 78.1161 452.74C76.8841 452.74 76.0021 451.984 75.8061 450.752H81.9381C81.9661 450.584 81.9801 450.416 81.9801 450.248ZM78.1161 447.672C79.2781 447.672 80.1321 448.344 80.4121 449.492H75.8481C76.1001 448.372 76.9541 447.672 78.1161 447.672ZM89.6831 446.44H82.8371V447.84H85.4971V454H87.0231V447.84H89.6831V446.44ZM97.4361 446.44L97.2541 447.392C96.5681 446.678 95.6021 446.258 94.4821 446.258C92.2281 446.258 90.5481 447.952 90.5481 450.22C90.5481 452.488 92.2281 454.196 94.4821 454.196C95.5881 454.196 96.5401 453.776 97.2261 453.09L97.3801 454H98.6261V446.44H97.4361ZM94.6081 452.698C93.1801 452.698 92.1301 451.634 92.1301 450.22C92.1301 448.806 93.1801 447.742 94.6081 447.742C96.0361 447.742 97.0721 448.792 97.0721 450.22C97.0721 451.648 96.0361 452.698 94.6081 452.698ZM102.452 446.44L101.92 451.242C101.808 452.194 101.388 452.614 100.674 452.614H100.31V454.042H100.562C102.326 454.042 103.194 453.286 103.404 451.144L103.74 447.798H106.064V454.014H107.604V446.454L102.452 446.44ZM111.414 446.44L110.882 451.242C110.77 452.194 110.35 452.614 109.636 452.614H109.272V454.042H109.524C111.288 454.042 112.156 453.286 112.366 451.144L112.702 447.798H115.026V454.014H116.566V446.454L111.414 446.44ZM122.545 454.196C124.855 454.196 126.577 452.502 126.577 450.22C126.577 447.952 124.855 446.258 122.545 446.258C120.221 446.258 118.499 447.938 118.499 450.22C118.499 452.502 120.221 454.196 122.545 454.196ZM122.545 452.712C121.103 452.712 120.081 451.676 120.081 450.22C120.081 448.778 121.103 447.742 122.545 447.742C123.973 447.742 124.995 448.778 124.995 450.22C124.995 451.676 123.973 452.712 122.545 452.712ZM129.665 446.44L129.133 451.242C129.021 452.194 128.601 452.614 127.887 452.614H127.523V454.042H127.775C129.539 454.042 130.407 453.286 130.617 451.144L130.953 447.798H133.277V454.014H134.817V446.454L129.665 446.44ZM140.797 454.196C143.107 454.196 144.829 452.502 144.829 450.22C144.829 447.952 143.107 446.258 140.797 446.258C138.473 446.258 136.751 447.938 136.751 450.22C136.751 452.502 138.473 454.196 140.797 454.196ZM140.797 452.712C139.355 452.712 138.333 451.676 138.333 450.22C138.333 448.778 139.355 447.742 140.797 447.742C142.225 447.742 143.247 448.778 143.247 450.22C143.247 451.676 142.225 452.712 140.797 452.712ZM156.314 454L154.956 446.44H153.64L151.204 451.284L148.796 446.44H147.48L146.108 454H147.606L148.516 448.862L151.05 453.916H151.372L153.906 448.862L154.816 454H156.314ZM168.35 452.572V446.44H166.838V452.572H163.52V446.44H162.008V454H167.958V455.904H169.372V452.572H168.35ZM176.408 450.052C176.982 449.73 177.346 449.1 177.346 448.372C177.346 447.238 176.464 446.44 175.19 446.44H171.298V454H175.232C176.59 454 177.598 453.076 177.598 451.844C177.598 451.018 177.122 450.346 176.408 450.052ZM175.82 448.638C175.82 449.142 175.442 449.506 174.868 449.506H172.81V447.77H174.868C175.442 447.77 175.82 448.12 175.82 448.638ZM174.952 452.642H172.81V450.766H174.938C175.568 450.766 176.002 451.144 176.002 451.704C176.002 452.264 175.568 452.642 174.952 452.642ZM186.813 450.248C186.813 448.05 185.273 446.258 182.949 446.258C180.737 446.258 179.071 447.966 179.071 450.22C179.071 452.488 180.737 454.196 182.949 454.196C184.643 454.196 186.029 453.216 186.631 451.62H184.993C184.587 452.32 183.859 452.74 182.949 452.74C181.717 452.74 180.835 451.984 180.639 450.752H186.771C186.799 450.584 186.813 450.416 186.813 450.248ZM182.949 447.672C184.111 447.672 184.965 448.344 185.245 449.492H180.681C180.933 448.372 181.787 447.672 182.949 447.672ZM194.516 446.44H187.67V447.84H190.33V454H191.856V447.84H194.516V446.44ZM201.186 446.44V449.408H197.686V446.44H196.16V454H197.686V450.85H201.186V454H202.726V446.44H201.186ZM208.703 454.196C211.013 454.196 212.735 452.502 212.735 450.22C212.735 447.952 211.013 446.258 208.703 446.258C206.379 446.258 204.657 447.938 204.657 450.22C204.657 452.502 206.379 454.196 208.703 454.196ZM208.703 452.712C207.261 452.712 206.239 451.676 206.239 450.22C206.239 448.778 207.261 447.742 208.703 447.742C210.131 447.742 211.153 448.778 211.153 450.22C211.153 451.676 210.131 452.712 208.703 452.712ZM219.808 443.962H216.056V445.11H219.808V443.962ZM220.214 446.44L216.168 451.2V446.44H214.684V454H215.566L219.598 449.212V454H221.082V446.44H220.214Z" fill="#071E23"/>
<rect x="0.75" y="420.75" width="298.5" height="58.5" rx="9.25" stroke="#F3F1F8" stroke-width="1.5"/>
<defs>
<clipPath id="clip0_2_2439">
<rect y="210" width="300" height="60" rx="10" fill="white"/>
</clipPath>
</defs>
</svg>
