<svg width="240" height="65" viewBox="0 0 240 65" fill="none" xmlns="http://www.w3.org/2000/svg">
<path fill-rule="evenodd" clip-rule="evenodd" d="M9.9088 62.6386C14.2326 64.1582 18.7367 64.918 23.4208 64.918C28.5854 64.918 32.9393 64.1582 36.4824 62.6386C40.0256 61.0582 42.6379 58.9611 44.3194 56.3474C46.0609 53.6729 46.9317 50.7248 46.9317 47.5032C46.9317 43.613 45.9408 40.5434 43.9591 38.2943C41.9773 35.9845 39.5451 34.2826 36.6626 33.1884C33.8401 32.0335 30.1168 30.8786 25.4927 29.7237C21.5892 28.7511 18.4664 27.8698 16.1243 27.0796C13.8423 26.2286 11.9206 25.0433 10.3592 23.5237C8.85787 21.9433 8.1072 19.8766 8.1072 17.3236C8.1072 13.9197 9.48843 11.154 12.2509 9.02652C15.0734 6.83828 19.2471 5.74415 24.772 5.74415C27.6546 5.74415 30.5972 6.20004 33.5999 7.11181C36.6025 7.96279 39.425 9.26966 42.0674 11.0324L44.3194 5.65297C41.7971 3.89022 38.7945 2.52256 35.3114 1.55001C31.8883 0.51667 28.3752 0 24.772 0C19.6074 0 15.2836 0.790201 11.8005 2.3706C8.31739 3.951 5.7351 6.07847 4.0536 8.75299C2.37211 11.3667 1.53136 14.2844 1.53136 17.506C1.53136 21.457 2.52224 24.5874 4.504 26.8972C6.54582 29.207 8.97798 30.9394 11.8005 32.0943C14.623 33.1884 18.4064 34.3433 23.1506 35.559C27.1141 36.5316 30.2068 37.4434 32.4288 38.2943C34.6508 39.0845 36.5124 40.2394 38.0138 41.7591C39.5752 43.2787 40.3559 45.315 40.3559 47.8679C40.3559 51.2111 38.9446 53.9464 36.1221 56.0739C33.2996 58.1405 29.0658 59.1739 23.4208 59.1739C19.3972 59.1739 15.4938 58.4748 11.7104 57.0768C7.92704 55.618 4.89435 53.7336 2.61232 51.4238L0 56.6209C2.34208 59.1131 5.64502 61.119 9.9088 62.6386ZM68.1216 0.54706H61.4557V64.371H103.433V58.5356H68.1216V0.54706ZM119.759 58.0294C116.593 55.5656 113.979 52.5735 111.918 49.0532C109.096 44.1297 107.684 38.5983 107.684 32.459C107.684 26.3198 109.096 20.7884 111.918 15.8648C114.801 10.9412 118.764 7.08141 123.809 4.28532C128.913 1.42844 134.588 0 140.834 0C147.079 0 152.694 1.39805 157.679 4.19414C162.723 6.99024 166.687 10.8805 169.569 15.8648C172.452 20.7884 173.893 26.3198 173.893 32.459C173.893 38.5983 172.452 44.1601 169.569 49.1444C166.687 54.068 162.723 57.9278 157.679 60.7239C152.694 63.52 147.079 64.918 140.834 64.918C135.236 64.918 130.097 63.795 125.416 61.5489L130.078 56.8828C133.394 58.2278 136.979 58.9003 140.834 58.9003C145.818 58.9003 150.322 57.7758 154.346 55.5268C158.369 53.217 161.522 50.0562 163.804 46.0444C166.086 41.9718 167.227 37.4434 167.227 32.459C167.227 27.4747 166.086 22.9766 163.804 18.9648C161.522 14.8922 158.369 11.7314 154.346 9.48241C150.322 7.17259 145.818 6.01768 140.834 6.01768C135.849 6.01768 131.315 7.17259 127.232 9.48241C123.208 11.7314 120.025 14.8922 117.683 18.9648C115.401 22.9766 114.26 27.4747 114.26 32.459C114.26 37.4434 115.401 41.9718 117.683 46.0444C119.412 49.0064 121.6 51.5045 124.246 53.5388L119.759 58.0294ZM239.64 32.459H233.244V53.9768C228.74 57.2592 223.245 58.9003 216.759 58.9003C211.655 58.9003 207.061 57.7454 202.977 55.4356C198.893 53.1258 195.681 49.965 193.339 45.9532C190.996 41.9414 189.825 37.4434 189.825 32.459C189.825 27.4747 190.996 22.9766 193.339 18.9648C195.681 14.8922 198.893 11.7314 202.977 9.48241C207.121 7.17259 211.745 6.01768 216.849 6.01768C224.536 6.01768 230.872 8.50985 235.856 13.4942L240 9.20888C237.238 6.16964 233.845 3.89022 229.821 2.3706C225.797 0.790201 221.383 0 216.579 0C210.214 0 204.508 1.39805 199.464 4.19414C194.419 6.99024 190.456 10.8805 187.573 15.8648C184.691 20.7884 183.25 26.3198 183.25 32.459C183.25 38.5983 184.691 44.1601 187.573 49.1444C190.456 54.068 194.419 57.9278 199.464 60.7239C204.508 63.52 210.184 64.918 216.489 64.918C220.933 64.918 225.167 64.219 229.19 62.821C233.214 61.4229 236.697 59.417 239.64 56.8033V32.459Z" fill="white"/>
<path fill-rule="evenodd" clip-rule="evenodd" d="M149.838 23.3705H143.351C136.903 23.3705 131.676 28.6022 131.676 35.0557V41.5475H138.162C144.61 41.5475 149.838 36.3159 149.838 29.8623V23.3705ZM143.351 16.8787C133.321 16.8787 125.189 25.0168 125.189 35.0557V48.0393H138.162C148.193 48.0393 156.324 39.9012 156.324 29.8623V16.8787H143.351Z" fill="white"/>
<path fill-rule="evenodd" clip-rule="evenodd" d="M115.131 53.5289L127.385 41.2648L131.972 45.8552L119.718 58.1193L115.131 53.5289Z" fill="white"/>
</svg>
