<svg width="50" height="50" viewBox="0 0 50 50" fill="none" xmlns="http://www.w3.org/2000/svg">
<path fill-rule="evenodd" clip-rule="evenodd" d="M13.5681 47.4911C17.0555 49.1637 20.8775 49.9999 25.034 49.9999C29.7506 49.9999 33.9909 48.9232 37.7551 46.7696C41.5646 44.6161 44.5578 41.6432 46.7347 37.8511C48.9116 34.0121 50 29.7284 50 25C50 20.2715 48.9116 16.0112 46.7347 12.2191C44.5578 8.38014 41.5646 5.38389 37.7551 3.23033C33.9909 1.07678 29.7506 0 25.034 0C20.3175 0 16.0317 1.10019 12.1769 3.30056C8.36734 5.45411 5.37415 8.42696 3.19728 12.2191C1.06576 16.0112 0 20.2715 0 25C0 29.7284 1.06576 33.9887 3.19728 37.7809C4.77547 40.5301 6.7827 42.861 9.219 44.7736L12.6458 41.3434C10.5853 39.7574 8.88701 37.7974 7.55102 35.4634C5.82766 32.3267 4.96598 28.8389 4.96598 25C4.96598 21.161 5.82766 17.6966 7.55102 14.6067C9.31973 11.47 11.7234 9.03557 14.7619 7.30336C17.8458 5.52434 21.2698 4.63483 25.034 4.63483C28.7982 4.63483 32.1995 5.52434 35.2381 7.30336C38.2766 9.03557 40.6576 11.47 42.381 14.6067C44.1043 17.6966 44.966 21.161 44.966 25C44.966 28.8389 44.1043 32.3267 42.381 35.4634C40.6576 38.5533 38.2766 40.9878 35.2381 42.7668C32.1995 44.499 28.7982 45.3651 25.034 45.3651C22.2146 45.3651 19.586 44.8792 17.1483 43.9074L13.5681 47.4911Z" fill="url(#paint0_linear_2_2493)"/>
<path fill-rule="evenodd" clip-rule="evenodd" d="M32.0113 18H27.0033C22.0248 18 17.9889 22.0294 17.9889 27V32H22.9969C27.9754 32 32.0113 27.9705 32.0113 23V18ZM27.0033 13C19.259 13 12.9809 19.268 12.9809 27V37H22.9969C30.7413 37 37.0194 30.732 37.0194 23V13H27.0033Z" fill="url(#paint1_linear_2_2493)"/>
<path fill-rule="evenodd" clip-rule="evenodd" d="M5.74908 41.228L15.21 31.7822L18.7512 35.3178L9.29028 44.7636L5.74908 41.228Z" fill="url(#paint2_linear_2_2493)"/>
<defs>
<linearGradient id="paint0_linear_2_2493" x1="25" y1="0" x2="25" y2="49.9999" gradientUnits="userSpaceOnUse">
<stop stop-color="#3EAEFF"/>
<stop offset="1" stop-color="#36FFE7"/>
</linearGradient>
<linearGradient id="paint1_linear_2_2493" x1="25.0001" y1="13" x2="25.0001" y2="37" gradientUnits="userSpaceOnUse">
<stop stop-color="#3EAEFF"/>
<stop offset="1" stop-color="#36FFE7"/>
</linearGradient>
<linearGradient id="paint2_linear_2_2493" x1="16.9806" y1="33.55" x2="7.53484" y2="43.0109" gradientUnits="userSpaceOnUse">
<stop stop-color="#3EAEFF"/>
<stop offset="1" stop-color="#36FFE7"/>
</linearGradient>
</defs>
</svg>
